<?xml version="1.0" encoding="UTF-8"?>
<svg version="1.1" xmlns="http://www.w3.org/2000/svg" width="512" height="512">
<path d="M0 0 C1.01790619 0.00215515 2.03581238 0.0043103 3.08456421 0.00653076 C17.69363523 0.05620146 32.02575853 0.30709809 46.375 3.3125 C47.34985352 3.51117676 48.32470703 3.70985352 49.32910156 3.91455078 C97.7109774 14.03517194 141.69928269 35.9516877 177.375 70.3125 C178.3640332 71.26068604 178.3640332 71.26068604 179.37304688 72.22802734 C188.86130305 81.37247479 197.6012044 90.66984009 205.375 101.3125 C206.23306152 102.46355017 207.09113451 103.61459177 207.94921875 104.765625 C213.98736829 112.95680614 219.34595521 121.47054105 224.375 130.3125 C224.73948242 130.94430176 225.10396484 131.57610352 225.47949219 132.22705078 C247.08534998 169.97532572 256.85198095 212.74189997 256.6875 255.9375 C256.68534485 256.95540619 256.6831897 257.97331238 256.68096924 259.02206421 C256.63129854 273.63113523 256.38040191 287.96325853 253.375 302.3125 C253.07698486 303.77478027 253.07698486 303.77478027 252.77294922 305.26660156 C242.65232806 353.6484774 220.7358123 397.63678269 186.375 433.3125 C185.74287598 433.97185547 185.11075195 434.63121094 184.45947266 435.31054688 C175.31502521 444.79880305 166.01765991 453.5387044 155.375 461.3125 C154.22394983 462.17056152 153.07290823 463.02863451 151.921875 463.88671875 C143.73224019 469.92427396 135.22961724 475.30707302 126.375 480.3125 C125.66778809 480.7146875 124.96057617 481.116875 124.23193359 481.53125 C101.09654164 494.5566741 75.92537591 503.30551461 49.9375 508.625 C49.21860596 508.77235596 48.49971191 508.91971191 47.7590332 509.0715332 C33.08339502 511.86090125 18.55831162 512.66142619 3.64770508 512.62817383 C0.70811513 512.6250221 -2.2304558 512.64854926 -5.16992188 512.67382812 C-18.54306192 512.71848737 -31.43916711 511.51301542 -44.625 509.3125 C-46.33055054 509.03031616 -46.33055054 509.03031616 -48.07055664 508.74243164 C-91.33802759 500.97044532 -132.38793216 480.98345309 -165.625 452.3125 C-166.37007813 451.67828125 -167.11515625 451.0440625 -167.8828125 450.390625 C-181.38779833 438.57948485 -194.05918743 425.82889772 -204.625 411.3125 C-205.48149066 410.16255169 -206.33826433 409.01281411 -207.1953125 407.86328125 C-213.23534209 399.67315742 -218.61867614 391.16870382 -223.625 382.3125 C-224.0271875 381.60528809 -224.429375 380.89807617 -224.84375 380.16943359 C-237.8691741 357.03404164 -246.61801461 331.86287591 -251.9375 305.875 C-252.08485596 305.15610596 -252.23221191 304.43721191 -252.3840332 303.6965332 C-255.35789088 288.05024391 -255.99800362 272.57681954 -255.9375 256.6875 C-255.93534485 255.66959381 -255.9331897 254.65168762 -255.93096924 253.60293579 C-255.88129854 238.99386477 -255.63040191 224.66174147 -252.625 210.3125 C-252.42632324 209.33764648 -252.22764648 208.36279297 -252.02294922 207.35839844 C-241.90232806 158.9765226 -219.9858123 114.98821731 -185.625 79.3125 C-184.99287598 78.65314453 -184.36075195 77.99378906 -183.70947266 77.31445312 C-174.56502521 67.82619695 -165.26765991 59.0862956 -154.625 51.3125 C-153.47394983 50.45443848 -152.32290823 49.59636549 -151.171875 48.73828125 C-142.98224019 42.70072604 -134.47961724 37.31792698 -125.625 32.3125 C-124.91778809 31.9103125 -124.21057617 31.508125 -123.48193359 31.09375 C-100.34654164 18.0683259 -75.17537591 9.31948539 -49.1875 4 C-48.46860596 3.85264404 -47.74971191 3.70528809 -47.0090332 3.5534668 C-31.36274391 0.57960912 -15.88931954 -0.06050362 0 0 Z " fill="#FE6C52" transform="translate(255.625,-0.3125)"/>
<path d="M0 0 C1.26553211 -0.00623996 2.53106423 -0.01247993 3.8349458 -0.01890898 C7.336388 -0.03557256 10.83739287 -0.02736976 14.33883643 -0.0149641 C18.11945509 -0.00590344 21.89999923 -0.01988848 25.68060303 -0.03088379 C33.08290049 -0.04866383 40.48503565 -0.04483106 47.88733946 -0.03323323 C53.90493911 -0.02419578 59.92249331 -0.02297626 65.94009781 -0.02732849 C66.79691286 -0.02794142 67.65372791 -0.02855436 68.53650705 -0.02918586 C70.27719474 -0.03046478 72.01788242 -0.03176164 73.75857009 -0.03307623 C90.07914098 -0.04448087 106.39962199 -0.03137086 122.72017814 -0.00987476 C136.71658349 0.00798973 150.7128561 0.00489726 164.70925903 -0.0135498 C180.96874874 -0.0349696 197.22815963 -0.04337551 213.48766148 -0.03110075 C215.22251899 -0.02982658 216.95737651 -0.0285691 218.69223404 -0.02732849 C219.5457769 -0.02671139 220.39931976 -0.02609429 221.27872755 -0.02545848 C227.28638163 -0.02200843 233.29398561 -0.02782662 239.30163193 -0.0372467 C246.62705059 -0.04848068 253.95229786 -0.04539759 261.27769695 -0.02412373 C265.01354804 -0.01363104 268.74911367 -0.00946069 272.48496246 -0.02272034 C276.53888745 -0.03689095 280.59209546 -0.01993942 284.64599609 0 C285.82119965 -0.00892289 286.99640321 -0.01784577 288.207219 -0.02703905 C295.72037144 0.04463249 302.57342708 0.57242816 308.08834571 6.17121363 C312.01233434 11.58159552 312.16029666 16.86628069 312.09162903 23.3626709 C312.10013455 24.43375249 312.10864007 25.50483408 312.11740333 26.60837269 C312.13963146 30.18590829 312.12624777 33.76239969 312.11282349 37.33996582 C312.12123839 39.90942122 312.13176426 42.47887044 312.14424133 45.04830933 C312.17028416 51.295789 312.1692536 57.54298047 312.15820315 63.79049373 C312.14963355 68.86939991 312.15048428 73.94822291 312.15799904 79.02713013 C312.15905393 79.75088107 312.16010881 80.47463201 312.16119567 81.2203148 C312.16336666 82.6907507 312.16555344 84.16118658 312.16775582 85.63162243 C312.18717071 99.40939731 312.17520183 113.18701069 312.15296987 126.96477234 C312.13471819 138.77842838 312.14562651 150.59177188 312.17727661 162.40539551 C312.21405784 176.13496394 312.23105469 189.86433724 312.21786433 203.59395504 C312.21652328 205.058883 312.2152143 206.52381099 312.21393776 207.98873901 C312.21299176 209.06980595 312.21299176 209.06980595 312.21202665 210.17271262 C312.20900256 215.24362946 312.22024554 220.31439876 312.23718834 225.38528442 C312.25966302 232.21449932 312.25048807 239.04306059 312.22009468 245.87224197 C312.21376054 248.37802301 312.21764413 250.88385388 312.2325058 253.38959885 C312.25115607 256.81153803 312.23280296 260.23136469 312.20515442 263.65319824 C312.22625409 265.13920139 312.22625409 265.13920139 312.24778003 266.6552248 C312.15056771 272.6293367 311.08138654 276.35951799 307.1092276 280.91059202 C301.22919876 286.57124799 294.72246199 285.93477025 287.01348877 285.89561462 C285.11541389 285.90369293 285.11541389 285.90369293 283.17899406 285.91193444 C279.67343311 285.9263859 276.16810733 285.92214534 272.66253352 285.91476762 C268.87919709 285.91003745 265.09591165 285.92254451 261.31259155 285.93278503 C253.90316852 285.94998172 246.49383025 285.9508112 239.08439244 285.94557213 C233.06152098 285.94153058 227.03867456 285.94297381 221.01580429 285.94832039 C219.7299454 285.94944302 219.7299454 285.94944302 218.41810956 285.95058833 C216.67661461 285.95211982 214.93511966 285.95365816 213.19362472 285.9552033 C196.86166166 285.96893165 180.5297465 285.96348845 164.19778453 285.95201809 C149.2593802 285.94208676 134.32109975 285.95502404 119.38271452 285.97895228 C104.04142469 286.0033406 88.70019257 286.01295172 73.35888374 286.00629956 C64.7469414 286.00280656 56.13509433 286.00504463 47.52316666 286.02255058 C40.19148201 286.03726928 32.8599597 286.03791247 25.52827825 286.02047967 C21.78850169 286.01196422 18.04901516 286.00983311 14.30925369 286.02513123 C10.25274775 286.0415194 6.1969422 286.02683826 2.14044189 286.00914001 C0.96164337 286.01874502 -0.21715515 286.02835003 -1.43167484 286.0382461 C-8.27455641 285.97675062 -12.73003402 285.18699565 -18.55001831 281.50793457 C-24.61466767 275.28368918 -24.84430691 269.35577303 -24.82417297 261.0831604 C-24.82940965 260.02210362 -24.83464633 258.96104685 -24.8400417 257.86783683 C-24.85506314 254.30658796 -24.85574733 250.7454825 -24.85641479 247.1842041 C-24.86403475 244.63327796 -24.87246197 242.08235412 -24.88163757 239.53143311 C-24.90360382 232.59758943 -24.91240592 225.66379554 -24.91746402 218.72992182 C-24.92072262 214.39954199 -24.92724602 210.06917104 -24.93446541 205.73879623 C-24.9540275 193.74606424 -24.97043447 181.75334048 -24.97334194 169.76059151 C-24.97352951 168.99344912 -24.97371708 168.22630673 -24.97391034 167.43591761 C-24.97427658 165.88078682 -24.97464028 164.32565602 -24.97500145 162.77052523 C-24.97518426 161.99857246 -24.97536707 161.22661969 -24.97555542 160.43127441 C-24.97573597 159.65837825 -24.97591652 158.88548209 -24.97610254 158.08916484 C-24.97964514 145.56200627 -25.00667459 133.0350195 -25.04405331 120.50792052 C-25.08213396 107.64252803 -25.10149939 94.77722081 -25.10180146 81.9117707 C-25.10238602 74.68981406 -25.11087725 67.46806246 -25.13979912 60.2461586 C-25.16687198 53.45483207 -25.16822005 46.66398027 -25.15214348 39.87259674 C-25.15032404 37.37928508 -25.15706401 34.88595039 -25.17296219 32.39268875 C-25.19333637 28.99020015 -25.1829201 25.58914555 -25.16474915 22.18667603 C-25.17794911 21.19882996 -25.19114908 20.21098389 -25.20474905 19.19320309 C-25.13942042 13.84169623 -24.59137605 10.10869242 -21.05750817 5.9547447 C-14.60711935 -0.23600199 -8.58179962 -0.06491201 0 0 Z " fill="#7584F2" transform="translate(112.55001831054688,103.4920654296875)"/>
<path d="M0 0 C7.36568353 6.25396111 7.36568353 6.25396111 10.66215515 9.46115112 C11.29705872 10.0773381 11.93196228 10.69352509 12.58610535 11.3283844 C13.59088676 12.31027992 13.59088676 12.31027992 14.6159668 13.31201172 C15.3420816 14.01870499 16.06819641 14.72539825 16.8163147 15.45350647 C23.47245852 21.94162916 30.09363092 28.46545535 36.70402813 35.00015068 C41.13249916 39.37720552 45.57180397 43.74186195 50.03930664 48.07910156 C54.37955956 52.29334455 58.68915005 56.5368379 62.97941017 60.80194473 C64.60959948 62.41261922 66.25010389 64.01292838 67.90134239 65.60201645 C78.10039677 75.43459139 84.31149197 82.64321792 86 97 C86.33546936 98.66163455 86.68071453 100.32142034 87.046875 101.9765625 C91.57634303 129.5689182 91.73174027 161.63390136 86 189 C85.70198486 190.46228027 85.70198486 190.46228027 85.39794922 191.95410156 C75.27732806 240.3359774 53.3608123 284.32428269 19 320 C18.36787598 320.65935547 17.73575195 321.31871094 17.08447266 321.99804688 C7.94002521 331.48630305 -1.35734009 340.2262044 -12 348 C-13.15105017 348.85806152 -14.30209177 349.71613451 -15.453125 350.57421875 C-23.64275981 356.61177396 -32.14538276 361.99457302 -41 367 C-41.70721191 367.4021875 -42.41442383 367.804375 -43.14306641 368.21875 C-66.27845836 381.2441741 -91.44962409 389.99301461 -117.4375 395.3125 C-118.15639404 395.45985596 -118.87528809 395.60721191 -119.6159668 395.7590332 C-134.45360663 398.57919256 -149.09244331 399.32443471 -164.16674805 399.26074219 C-167.19404953 399.24997671 -170.22076271 399.26072706 -173.24804688 399.2734375 C-175.22135544 399.27211623 -177.19466365 399.26955451 -179.16796875 399.265625 C-180.04857468 399.26967346 -180.9291806 399.27372192 -181.83647156 399.27789307 C-184.56512878 399.25800658 -187.2744694 399.13289139 -190 399 C-191.04086478 398.9798477 -192.08172956 398.9596954 -193.1541357 398.93893242 C-204.20559302 398.15407001 -209.52223608 393.13489672 -216.78857422 385.57373047 C-217.99001299 384.36890063 -219.1941126 383.16671925 -220.40063477 381.96697998 C-223.64612437 378.72491305 -226.85344806 375.44737937 -230.05486441 372.16186285 C-233.41503175 368.7263333 -236.80955134 365.32508407 -240.20046997 361.91995239 C-246.60635792 355.4768678 -252.98105904 349.00383151 -259.34494317 342.51928532 C-266.59569615 335.13408698 -273.88083157 327.78320997 -281.16896033 320.43492293 C-296.15103018 305.327651 -311.08971042 290.17809885 -326 275 C-325.34 274.67 -324.68 274.34 -324 274 C-323.01 274.33 -322.02 274.66 -321 275 C-319.27263964 275.09547523 -317.54180968 275.13270777 -315.81181812 275.13701439 C-314.73092594 275.14208893 -313.65003376 275.14716347 -312.53638726 275.15239179 C-310.74838953 275.15313843 -310.74838953 275.15313843 -308.92427063 275.15390015 C-307.66145065 275.1582824 -306.39863067 275.16266465 -305.09754342 275.1671797 C-301.5852794 275.1791486 -298.07302912 275.18479438 -294.5607487 275.18936086 C-290.77532781 275.19531573 -286.98992335 275.20692584 -283.20451355 275.21765137 C-274.05919428 275.24217764 -264.91386957 275.25680266 -255.76852754 275.26971143 C-253.18577248 275.27342314 -250.60301796 275.27739639 -248.02026343 275.2814641 C-231.98390122 275.30669991 -215.94753816 275.3287544 -199.91116047 275.34119225 C-196.19638885 275.34412197 -192.48161726 275.34708363 -188.7668457 275.35009766 C-187.84355011 275.35084371 -186.92025452 275.35158976 -185.96898028 275.35235842 C-171.01097517 275.36501299 -156.05308891 275.39823734 -141.09513936 275.43989949 C-125.74039646 275.48231648 -110.3857144 275.50588699 -95.03091305 275.51111281 C-86.40882116 275.51452715 -77.786915 275.52628499 -69.16488075 275.55921555 C-61.82214103 275.58721398 -54.47962511 275.59821634 -47.13683615 275.58702008 C-43.39092743 275.58183287 -39.64548741 275.58472351 -35.89964676 275.60948563 C-31.83632171 275.63612207 -27.77402848 275.62392012 -23.71064758 275.60800171 C-22.5298027 275.6218838 -21.34895782 275.63576588 -20.13232976 275.65006864 C-13.16349829 275.58272063 -8.27709551 274.76078414 -3 270 C1.11454116 265.53445736 0.41013685 260.08181096 0.36076355 254.33830261 C0.36332682 253.25188911 0.3658901 252.16547561 0.36853105 251.04614049 C0.37347938 247.39934392 0.35695819 243.75295972 0.34057617 240.10620117 C0.33973013 237.49465952 0.34020459 234.88311716 0.34190369 232.27157593 C0.3434763 226.64581711 0.33406838 221.02016271 0.31719017 215.39443016 C0.2928031 207.26059538 0.2849952 199.12681106 0.2812262 190.99294368 C0.27466125 177.7961298 0.25469892 164.59937156 0.22631836 151.40258789 C0.19877891 138.58358031 0.17754477 125.76458784 0.16479492 112.94555664 C0.16400675 112.15531643 0.16321858 111.36507622 0.16240653 110.55088934 C0.1584914 106.58646372 0.15470028 102.622038 0.15097082 98.6576122 C0.11987356 65.77170096 0.0670366 32.88585793 0 0 Z " fill="#EE2318" transform="translate(423,113)"/>
<path d="M0 0 C55.44 0 110.88 0 168 0 C168.24181821 60.61576346 168.24181821 60.61576346 168.29296875 85.98828125 C168.30471573 91.78597108 168.31683855 97.58365994 168.32958984 103.38134766 C168.33117234 104.10797887 168.33275483 104.83461008 168.33438528 105.58326042 C168.36047092 117.30943139 168.407768 129.03542558 168.46291678 140.76149178 C168.51905477 152.79841147 168.55235876 164.8352387 168.56453097 176.87228394 C168.57202019 183.63220632 168.59001063 190.39176043 168.63438034 197.15155029 C168.67510951 203.51437867 168.68766797 209.87664143 168.67864609 216.23958778 C168.68029654 218.57446682 168.69222892 220.90936479 168.71523285 223.24413109 C168.74512328 226.43436218 168.73789633 229.62246291 168.7215271 232.81274414 C168.73900415 233.73494184 168.7564812 234.65713955 168.77448785 235.60728264 C168.69417566 241.40495755 167.47248761 244.93838714 163.68305612 249.3790862 C159.32621666 253.57506109 155.24583966 254.37498995 149.35610962 254.36076355 C147.37892409 254.36696229 147.37892409 254.36696229 145.36179543 254.37328625 C143.90737338 254.36264759 142.45295332 254.35173392 140.99853516 254.34057617 C139.4358847 254.3396566 137.87323301 254.34005861 136.31058311 254.34167194 C132.13394562 254.34234795 127.9575671 254.32498757 123.7809906 254.30384064 C119.85878706 254.28672869 115.93664582 254.28594982 112.0144043 254.28381348 C100.55123536 254.26808488 89.08811439 254.22620128 77.625 254.1875 C52.00875 254.125625 26.3925 254.06375 0 254 C0 170.18 0 86.36 0 0 Z " fill="#606AEA" transform="translate(256,135)"/>
<path d="M0 0 C55.44 0 110.88 0 168 0 C168.12375 18.975 168.2475 37.95 168.375 57.5 C168.45693604 66.47477539 168.45693604 66.47477539 168.54052734 75.63085938 C168.56762695 82.95800781 168.56762695 82.95800781 168.57266235 86.39221191 C168.58185357 88.78192859 168.6029103 91.17161807 168.63345337 93.56115723 C168.67749205 97.1890468 168.68343244 100.81524183 168.68115234 104.44335938 C168.70274099 105.50130455 168.72432964 106.55924973 168.74657249 107.64925385 C168.6950394 113.79095066 167.72625011 117.53248381 163.87449074 122.3633194 C159.3704213 126.29597318 155.23897052 127.37497336 149.35610962 127.36076355 C148.7139489 127.36332682 148.07178818 127.3658901 147.41016805 127.36853105 C145.27269619 127.37344635 143.13594121 127.35701453 140.99853516 127.34057617 C139.46072405 127.33972941 137.92291172 127.34020601 136.38510132 127.34190369 C132.22019338 127.34276314 128.05554554 127.32514556 123.89069796 127.30418181 C119.53451646 127.28540665 115.17832876 127.28366391 110.82211304 127.28010559 C102.57741827 127.27078759 94.33284308 127.24617713 86.08820093 127.21605712 C74.94410927 127.17622981 63.79998482 127.16005625 52.65583992 127.14255047 C35.10380374 127.11435587 17.55201988 127.05458472 0 127 C0 85.09 0 43.18 0 0 Z " fill="#4854B6" transform="translate(256,262)"/>
<path d="M0 0 C55.44 0 110.88 0 168 0 C168 41.91 168 83.82 168 127 C129.70316126 127.16121214 129.70316126 127.16121214 113.6484375 127.1953125 C102.56535433 127.21904216 91.48239285 127.24693055 80.39941406 127.30175781 C72.32753612 127.34167013 64.25575694 127.36744338 56.18378305 127.37635398 C51.91106849 127.3815613 47.63863645 127.39376994 43.36601257 127.42292023 C39.34079819 127.45015891 35.31598155 127.45842804 31.29068375 127.45243073 C29.81691956 127.4535272 28.34314147 127.46143089 26.86945724 127.4768219 C18.84538791 127.55648291 12.7968008 127.49986437 6 123 C1.74001093 118.62790596 -0.25408516 114.21128151 -0.24050903 108.10881042 C-0.24326403 107.15311503 -0.24601902 106.19741964 -0.2488575 105.21276379 C-0.24166128 104.17212937 -0.23446507 103.13149496 -0.22705078 102.05932617 C-0.22729185 100.93864652 -0.22753292 99.81796686 -0.2277813 98.66332722 C-0.22628987 95.03979332 -0.21106466 91.41646579 -0.1953125 87.79296875 C-0.19237154 85.55424092 -0.19033143 83.31551171 -0.18920898 81.07678223 C-0.17872777 72.78033383 -0.15080533 64.48391488 -0.125 56.1875 C-0.08375 37.645625 -0.0425 19.10375 0 0 Z " fill="#FEFDFE" transform="translate(88,262)"/>
<path d="M0 0 C1.26553211 -0.00623996 2.53106423 -0.01247993 3.8349458 -0.01890898 C7.336388 -0.03557256 10.83739287 -0.02736976 14.33883643 -0.0149641 C18.11945509 -0.00590344 21.89999923 -0.01988848 25.68060303 -0.03088379 C33.08290049 -0.04866383 40.48503565 -0.04483106 47.88733946 -0.03323323 C53.90493911 -0.02419578 59.92249331 -0.02297626 65.94009781 -0.02732849 C66.79691286 -0.02794142 67.65372791 -0.02855436 68.53650705 -0.02918586 C70.27719474 -0.03046478 72.01788242 -0.03176164 73.75857009 -0.03307623 C90.07914098 -0.04448087 106.39962199 -0.03137086 122.72017814 -0.00987476 C136.71658349 0.00798973 150.7128561 0.00489726 164.70925903 -0.0135498 C180.96874874 -0.0349696 197.22815963 -0.04337551 213.48766148 -0.03110075 C215.22251899 -0.02982658 216.95737651 -0.0285691 218.69223404 -0.02732849 C219.5457769 -0.02671139 220.39931976 -0.02609429 221.27872755 -0.02545848 C227.28638163 -0.02200843 233.29398561 -0.02782662 239.30163193 -0.0372467 C246.62705059 -0.04848068 253.95229786 -0.04539759 261.27769695 -0.02412373 C265.01354804 -0.01363104 268.74911367 -0.00946069 272.48496246 -0.02272034 C276.53888745 -0.03689095 280.59209546 -0.01993942 284.64599609 0 C285.82119965 -0.00892289 286.99640321 -0.01784577 288.207219 -0.02703905 C295.30977255 0.04071559 300.33911221 0.74865357 306.44998169 4.50793457 C311.44998169 12.50793457 311.44998169 12.50793457 311.44998169 31.50793457 C200.56998169 31.50793457 89.68998169 31.50793457 -24.55001831 31.50793457 C-24.55001831 11.50793457 -24.55001831 11.50793457 -19.55001831 4.50793457 C-13.42596299 -0.35744473 -7.61070903 -0.05756676 0 0 Z " fill="#CDCEDE" transform="translate(112.55001831054688,103.4920654296875)"/>
<path d="M0 0 C0.6494734 -0.00256327 1.29894679 -0.00512655 1.9681012 -0.0077675 C4.13631289 -0.01269439 6.30382248 0.00376843 8.4719696 0.02018738 C10.0293374 0.02103389 11.58670639 0.02055803 13.14407349 0.01885986 C17.36688832 0.01799943 21.5894473 0.03563294 25.81220269 0.05658174 C30.22711403 0.07534051 34.64203128 0.07709835 39.05697632 0.08065796 C47.41503463 0.08998077 55.77297517 0.11459776 64.13098162 0.14470643 C73.64722396 0.17824307 83.16347194 0.1947346 92.67975867 0.20979273 C112.25339824 0.24114712 131.82687637 0.29616216 151.4004364 0.36076355 C151.4004364 9.93076355 151.4004364 19.50076355 151.4004364 29.36076355 C95.9604364 29.36076355 40.5204364 29.36076355 -16.5995636 29.36076355 C-16.5995636 10.36076355 -16.5995636 10.36076355 -11.5995636 3.36076355 C-7.75821336 0.29579739 -4.85248933 -0.01156272 0 0 Z " fill="#E8ECF4" transform="translate(104.59956359863281,104.63923645019531)"/>
<path d="M0 0 C34.65 0 69.3 0 105 0 C105 9.9 105 19.8 105 30 C70.35 30 35.7 30 0 30 C0 20.1 0 10.2 0 0 Z " fill="#BEC3D2" transform="translate(123,334)"/>
<path d="M0 0 C34.65 0 69.3 0 105 0 C105 9.9 105 19.8 105 30 C70.35 30 35.7 30 0 30 C0 20.1 0 10.2 0 0 Z " fill="#BEC3D2" transform="translate(123,285)"/>
<path d="M0 0 C3.73400421 2.07444678 4.78947087 3.35671654 6.125 7.4375 C6 11 6 11 4 13.9375 C0.24750505 16.51734028 -1.53198469 16.79785988 -6 16 C-9 13.9375 -9 13.9375 -11 11 C-11.07003547 7.00797809 -10.58571574 4.84603384 -8.3125 1.5625 C-5.24421404 -0.51066619 -3.64026866 -0.59432958 0 0 Z " fill="#BFC4D3" transform="translate(140,113)"/>
<path d="M0 0 C3.73400421 2.07444678 4.78947087 3.35671654 6.125 7.4375 C6 11 6 11 4 13.9375 C0.24750505 16.51734028 -1.53198469 16.79785988 -6 16 C-9 13.9375 -9 13.9375 -11 11 C-11.07003547 7.00797809 -10.58571574 4.84603384 -8.3125 1.5625 C-5.24421404 -0.51066619 -3.64026866 -0.59432958 0 0 Z " fill="#BFC4D3" transform="translate(113,113)"/>
</svg>
